<svg width="101" height="41" viewBox="0 0 101 41" fill="none" xmlns="http://www.w3.org/2000/svg">
<path d="M15 5.5L16.1178 14.8806L20.7403 6.64181L18.1831 15.7361L25.6066 9.8934L19.7639 17.3169L28.8582 14.7597L20.6194 19.3822L30 20.5L20.6194 21.6178L28.8582 26.2403L19.7639 23.6831L25.6066 31.1066L18.1831 25.2639L20.7403 34.3582L16.1178 26.1194L15 35.5L13.8822 26.1194L9.25975 34.3582L11.8169 25.2639L4.3934 31.1066L10.2361 23.6831L1.14181 26.2403L9.3806 21.6178L0 20.5L9.3806 19.3822L1.14181 14.7597L10.2361 17.3169L4.3934 9.8934L11.8169 15.7361L9.25975 6.64181L13.8822 14.8806L15 5.5Z" fill="#0C0C0C"/>
<path d="M44.12 20.5L37.84 6.4H40.62L45.68 18.24H44.84L49.9 6.4H52.58L46.3 20.5H44.12ZM57.4041 20.7C55.7107 20.7 54.3841 20.2333 53.4241 19.3C52.4641 18.3667 51.9841 17.0867 51.9841 15.46C51.9841 14.4067 52.1907 13.4867 52.6041 12.7C53.0174 11.9133 53.5907 11.3 54.3241 10.86C55.0707 10.42 55.9374 10.2 56.9241 10.2C57.8974 10.2 58.7107 10.4067 59.3641 10.82C60.0174 11.2333 60.5107 11.8133 60.8441 12.56C61.1907 13.3067 61.3641 14.18 61.3641 15.18V15.84H54.0041V14.52H59.5841L59.2441 14.8C59.2441 13.8667 59.0441 13.1533 58.6441 12.66C58.2574 12.1667 57.6907 11.92 56.9441 11.92C56.1174 11.92 55.4774 12.2133 55.0241 12.8C54.5841 13.3867 54.3641 14.2067 54.3641 15.26V15.52C54.3641 16.6133 54.6307 17.4333 55.1641 17.98C55.7107 18.5133 56.4774 18.78 57.4641 18.78C58.0374 18.78 58.5707 18.7067 59.0641 18.56C59.5707 18.4 60.0507 18.1467 60.5041 17.8L61.2441 19.48C60.7641 19.8667 60.1907 20.1667 59.5241 20.38C58.8574 20.5933 58.1507 20.7 57.4041 20.7ZM63.4611 20.5V12.98C63.4611 12.5533 63.4478 12.12 63.4211 11.68C63.4078 11.24 63.3744 10.8133 63.3211 10.4H65.7411L66.0211 13.16H65.6211C65.7544 12.4933 65.9744 11.94 66.2811 11.5C66.6011 11.06 66.9878 10.7333 67.4411 10.52C67.8944 10.3067 68.3878 10.2 68.9211 10.2C69.1611 10.2 69.3544 10.2133 69.5011 10.24C69.6478 10.2533 69.7944 10.2867 69.9411 10.34L69.9211 12.54C69.6678 12.4333 69.4478 12.3667 69.2611 12.34C69.0878 12.3133 68.8678 12.3 68.6011 12.3C68.0278 12.3 67.5411 12.42 67.1411 12.66C66.7544 12.9 66.4611 13.2333 66.2611 13.66C66.0744 14.0867 65.9811 14.5733 65.9811 15.12V20.5H63.4611ZM76.2191 20.7C75.0191 20.7 74.1124 20.3867 73.4991 19.76C72.8857 19.1333 72.5791 18.1933 72.5791 16.94V12.28H70.6391V10.4H72.5791V7.82L75.0791 7.18V10.4H77.7791V12.28H75.0791V16.78C75.0791 17.4733 75.2124 17.96 75.4791 18.24C75.7457 18.52 76.1124 18.66 76.5791 18.66C76.8324 18.66 77.0457 18.64 77.2191 18.6C77.4057 18.56 77.5857 18.5067 77.7591 18.44V20.42C77.5324 20.5133 77.2791 20.58 76.9991 20.62C76.7324 20.6733 76.4724 20.7 76.2191 20.7ZM84.2595 20.7C82.5662 20.7 81.2395 20.2333 80.2795 19.3C79.3195 18.3667 78.8395 17.0867 78.8395 15.46C78.8395 14.4067 79.0462 13.4867 79.4595 12.7C79.8729 11.9133 80.4462 11.3 81.1795 10.86C81.9262 10.42 82.7929 10.2 83.7795 10.2C84.7529 10.2 85.5662 10.4067 86.2195 10.82C86.8729 11.2333 87.3662 11.8133 87.6995 12.56C88.0462 13.3067 88.2195 14.18 88.2195 15.18V15.84H80.8595V14.52H86.4395L86.0995 14.8C86.0995 13.8667 85.8995 13.1533 85.4995 12.66C85.1129 12.1667 84.5462 11.92 83.7995 11.92C82.9729 11.92 82.3329 12.2133 81.8795 12.8C81.4395 13.3867 81.2195 14.2067 81.2195 15.26V15.52C81.2195 16.6133 81.4862 17.4333 82.0195 17.98C82.5662 18.5133 83.3329 18.78 84.3195 18.78C84.8929 18.78 85.4262 18.7067 85.9195 18.56C86.4262 18.4 86.9062 18.1467 87.3595 17.8L88.0995 19.48C87.6195 19.8667 87.0462 20.1667 86.3795 20.38C85.7129 20.5933 85.0062 20.7 84.2595 20.7ZM88.718 20.5L93.418 14.72V15.86L88.978 10.4H91.938L94.838 14.14H93.938L96.838 10.4H99.778L95.378 15.86V14.72L100.058 20.5H97.078L93.938 16.48H94.838L91.678 20.5H88.718Z" fill="#0C0C0C"/>
<path d="M38.9588 37.5V28.7727H44.3707V29.9062H40.2756V32.5653H43.983V33.6946H40.2756V37.5H38.9588ZM45.8878 37.5V30.9545H47.1619V37.5H45.8878ZM46.5312 29.9446C46.3097 29.9446 46.1193 29.8707 45.9602 29.723C45.804 29.5724 45.7259 29.3935 45.7259 29.1861C45.7259 28.9759 45.804 28.7969 45.9602 28.6491C46.1193 28.4986 46.3097 28.4233 46.5312 28.4233C46.7528 28.4233 46.9418 28.4986 47.098 28.6491C47.2571 28.7969 47.3366 28.9759 47.3366 29.1861C47.3366 29.3935 47.2571 29.5724 47.098 29.723C46.9418 29.8707 46.7528 29.9446 46.5312 29.9446ZM50.1502 33.6136V37.5H48.8761V30.9545H50.0991V32.0199H50.18C50.3306 31.6733 50.5664 31.3949 50.8874 31.1847C51.2113 30.9744 51.619 30.8693 52.1104 30.8693C52.5565 30.8693 52.9471 30.9631 53.2823 31.1506C53.6175 31.3352 53.8775 31.6108 54.0621 31.9773C54.2468 32.3437 54.3391 32.7969 54.3391 33.3366V37.5H53.065V33.4901C53.065 33.0156 52.9414 32.6449 52.6942 32.3778C52.4471 32.108 52.1076 31.973 51.6758 31.973C51.3803 31.973 51.1175 32.0369 50.8874 32.1648C50.6602 32.2926 50.4798 32.4801 50.3462 32.7273C50.2156 32.9716 50.1502 33.267 50.1502 33.6136ZM63.3988 31.6108H62.0692C62.0181 31.3267 61.9229 31.0767 61.7837 30.8608C61.6445 30.6449 61.4741 30.4616 61.2724 30.3111C61.0707 30.1605 60.8448 30.0469 60.5948 29.9702C60.3477 29.8935 60.0849 29.8551 59.8065 29.8551C59.3036 29.8551 58.8533 29.9815 58.4556 30.2344C58.0607 30.4872 57.7482 30.858 57.5181 31.3466C57.2908 31.8352 57.1772 32.4318 57.1772 33.1364C57.1772 33.8466 57.2908 34.446 57.5181 34.9347C57.7482 35.4233 58.0621 35.7926 58.4599 36.0426C58.8576 36.2926 59.305 36.4176 59.8022 36.4176C60.0778 36.4176 60.3391 36.3807 60.5863 36.3068C60.8363 36.2301 61.0621 36.1179 61.2638 35.9702C61.4656 35.8224 61.636 35.642 61.7752 35.429C61.9173 35.2131 62.0153 34.9659 62.0692 34.6875L63.3988 34.6918C63.3278 35.1207 63.19 35.5156 62.9854 35.8764C62.7837 36.2344 62.5238 36.544 62.2056 36.8054C61.8903 37.0639 61.5295 37.2642 61.1232 37.4062C60.717 37.5483 60.2738 37.6193 59.7937 37.6193C59.038 37.6193 58.3647 37.4403 57.7738 37.0824C57.1829 36.7216 56.717 36.206 56.3761 35.5355C56.038 34.8651 55.869 34.0653 55.869 33.1364C55.869 32.2045 56.0394 31.4048 56.3803 30.7372C56.7212 30.0668 57.1871 29.5526 57.7781 29.1946C58.369 28.8338 59.0408 28.6534 59.7937 28.6534C60.2567 28.6534 60.6886 28.7202 61.0891 28.8537C61.4925 28.9844 61.8548 29.1776 62.1758 29.4332C62.4968 29.6861 62.7624 29.9957 62.9727 30.3622C63.1829 30.7259 63.3249 31.142 63.3988 31.6108ZM66.777 37.6449C66.3622 37.6449 65.9872 37.5682 65.652 37.4148C65.3168 37.2585 65.0511 37.0327 64.8551 36.7372C64.6619 36.4418 64.5653 36.0795 64.5653 35.6506C64.5653 35.2812 64.6364 34.9773 64.7784 34.7386C64.9205 34.5 65.1122 34.3111 65.3537 34.1719C65.5952 34.0327 65.8651 33.9276 66.1634 33.8565C66.4616 33.7855 66.7656 33.7315 67.0753 33.6946C67.4673 33.6491 67.7855 33.6122 68.0298 33.5838C68.2741 33.5526 68.4517 33.5028 68.5625 33.4347C68.6733 33.3665 68.7287 33.2557 68.7287 33.1023V33.0724C68.7287 32.7003 68.6236 32.4119 68.4134 32.2074C68.206 32.0028 67.8963 31.9006 67.4844 31.9006C67.0554 31.9006 66.7173 31.9957 66.4702 32.1861C66.2259 32.3736 66.0568 32.5824 65.9631 32.8125L64.7656 32.5398C64.9077 32.142 65.1151 31.821 65.3878 31.5767C65.6634 31.3295 65.9801 31.1506 66.3381 31.0398C66.696 30.9261 67.0724 30.8693 67.4673 30.8693C67.7287 30.8693 68.0057 30.9006 68.2983 30.9631C68.5938 31.0227 68.8693 31.1335 69.125 31.2955C69.3835 31.4574 69.5952 31.6889 69.7599 31.9901C69.9247 32.2884 70.0071 32.6761 70.0071 33.1534V37.5H68.7628V36.6051H68.7116C68.6293 36.7699 68.5057 36.9318 68.3409 37.0909C68.1761 37.25 67.9645 37.3821 67.706 37.4872C67.4474 37.5923 67.1378 37.6449 66.777 37.6449ZM67.054 36.6222C67.4063 36.6222 67.7074 36.5526 67.9574 36.4134C68.2102 36.2741 68.402 36.0923 68.5327 35.8679C68.6662 35.6406 68.733 35.3977 68.733 35.1392V34.2955C68.6875 34.3409 68.5994 34.3835 68.4688 34.4233C68.3409 34.4602 68.1946 34.4929 68.0298 34.5213C67.8651 34.5469 67.7045 34.571 67.5483 34.5938C67.392 34.6136 67.2614 34.6307 67.1562 34.6449C66.9091 34.6761 66.6832 34.7287 66.4787 34.8026C66.277 34.8764 66.1151 34.983 65.9929 35.1222C65.8736 35.2585 65.8139 35.4403 65.8139 35.6676C65.8139 35.983 65.9304 36.2216 66.1634 36.3835C66.3963 36.5426 66.6932 36.6222 67.054 36.6222ZM71.7042 39.9545V30.9545H72.9485V32.0156H73.055C73.1289 31.8793 73.2354 31.7216 73.3746 31.5426C73.5138 31.3636 73.707 31.2074 73.9542 31.0739C74.2013 30.9375 74.5281 30.8693 74.9343 30.8693C75.4627 30.8693 75.9343 31.0028 76.3491 31.2699C76.7638 31.5369 77.0891 31.9219 77.3249 32.4247C77.5636 32.9276 77.6829 33.5327 77.6829 34.2401C77.6829 34.9474 77.565 35.554 77.3292 36.0597C77.0934 36.5625 76.7695 36.9503 76.3576 37.223C75.9457 37.4929 75.4755 37.6278 74.9471 37.6278C74.5494 37.6278 74.2241 37.5611 73.9712 37.4276C73.7212 37.294 73.5252 37.1378 73.3832 36.9588C73.2411 36.7798 73.1317 36.6207 73.055 36.4815H72.9783V39.9545H71.7042ZM72.9528 34.2273C72.9528 34.6875 73.0195 35.0909 73.1531 35.4375C73.2866 35.7841 73.4798 36.0554 73.7326 36.2514C73.9854 36.4446 74.2951 36.5412 74.6616 36.5412C75.0423 36.5412 75.3604 36.4403 75.6161 36.2386C75.8718 36.0341 76.065 35.7571 76.1957 35.4077C76.3292 35.0582 76.396 34.6648 76.396 34.2273C76.396 33.7955 76.3306 33.4077 76.1999 33.0639C76.0721 32.7202 75.8789 32.4489 75.6204 32.25C75.3647 32.0511 75.0451 31.9517 74.6616 31.9517C74.2923 31.9517 73.9798 32.0469 73.7241 32.2372C73.4712 32.4276 73.2795 32.6932 73.1488 33.0341C73.0181 33.375 72.9528 33.7727 72.9528 34.2273ZM79.1104 37.5V30.9545H80.3846V37.5H79.1104ZM79.7539 29.9446C79.5323 29.9446 79.342 29.8707 79.1829 29.723C79.0266 29.5724 78.9485 29.3935 78.9485 29.1861C78.9485 28.9759 79.0266 28.7969 79.1829 28.6491C79.342 28.4986 79.5323 28.4233 79.7539 28.4233C79.9755 28.4233 80.1644 28.4986 80.3207 28.6491C80.4798 28.7969 80.5593 28.9759 80.5593 29.1861C80.5593 29.3935 80.4798 29.5724 80.3207 29.723C80.1644 29.8707 79.9755 29.9446 79.7539 29.9446ZM85.1541 30.9545V31.9773H81.5788V30.9545H85.1541ZM82.5376 29.3864H83.8118V35.5781C83.8118 35.8253 83.8487 36.0114 83.9226 36.1364C83.9964 36.2585 84.0916 36.3423 84.2081 36.3878C84.3274 36.4304 84.4567 36.4517 84.5959 36.4517C84.6982 36.4517 84.7876 36.4446 84.8643 36.4304C84.9411 36.4162 85.0007 36.4048 85.0433 36.3963L85.2734 37.4489C85.1996 37.4773 85.0945 37.5057 84.9581 37.5341C84.8217 37.5653 84.6513 37.5824 84.4467 37.5852C84.1115 37.5909 83.799 37.5312 83.5092 37.4062C83.2195 37.2812 82.9851 37.0881 82.8061 36.8267C82.6271 36.5653 82.5376 36.2372 82.5376 35.8423V29.3864ZM88.4684 37.6449C88.0536 37.6449 87.6786 37.5682 87.3434 37.4148C87.0082 37.2585 86.7425 37.0327 86.5465 36.7372C86.3533 36.4418 86.2567 36.0795 86.2567 35.6506C86.2567 35.2812 86.3278 34.9773 86.4698 34.7386C86.6119 34.5 86.8036 34.3111 87.0451 34.1719C87.2866 34.0327 87.5565 33.9276 87.8548 33.8565C88.1531 33.7855 88.457 33.7315 88.7667 33.6946C89.1587 33.6491 89.4769 33.6122 89.7212 33.5838C89.9656 33.5526 90.1431 33.5028 90.2539 33.4347C90.3647 33.3665 90.4201 33.2557 90.4201 33.1023V33.0724C90.4201 32.7003 90.315 32.4119 90.1048 32.2074C89.8974 32.0028 89.5877 31.9006 89.1758 31.9006C88.7468 31.9006 88.4087 31.9957 88.1616 32.1861C87.9173 32.3736 87.7482 32.5824 87.6545 32.8125L86.457 32.5398C86.5991 32.142 86.8065 31.821 87.0792 31.5767C87.3548 31.3295 87.6715 31.1506 88.0295 31.0398C88.3874 30.9261 88.7638 30.8693 89.1587 30.8693C89.4201 30.8693 89.6971 30.9006 89.9897 30.9631C90.2852 31.0227 90.5607 31.1335 90.8164 31.2955C91.0749 31.4574 91.2866 31.6889 91.4513 31.9901C91.6161 32.2884 91.6985 32.6761 91.6985 33.1534V37.5H90.4542V36.6051H90.4031C90.3207 36.7699 90.1971 36.9318 90.0323 37.0909C89.8675 37.25 89.6559 37.3821 89.3974 37.4872C89.1388 37.5923 88.8292 37.6449 88.4684 37.6449ZM88.7454 36.6222C89.0977 36.6222 89.3988 36.5526 89.6488 36.4134C89.9016 36.2741 90.0934 36.0923 90.2241 35.8679C90.3576 35.6406 90.4244 35.3977 90.4244 35.1392V34.2955C90.3789 34.3409 90.2908 34.3835 90.1602 34.4233C90.0323 34.4602 89.886 34.4929 89.7212 34.5213C89.5565 34.5469 89.396 34.571 89.2397 34.5938C89.0835 34.6136 88.9528 34.6307 88.8477 34.6449C88.6005 34.6761 88.3746 34.7287 88.1701 34.8026C87.9684 34.8764 87.8065 34.983 87.6843 35.1222C87.565 35.2585 87.5053 35.4403 87.5053 35.6676C87.5053 35.983 87.6218 36.2216 87.8548 36.3835C88.0877 36.5426 88.3846 36.6222 88.7454 36.6222ZM94.6697 28.7727V37.5H93.3956V28.7727H94.6697Z" fill="#0C0C0C"/>
</svg>
