<svg width="168" height="21" viewBox="0 0 168 21" fill="none" xmlns="http://www.w3.org/2000/svg">
<path d="M3.89205 1.45455L7.40767 12.5057H7.54261L11.0653 1.45455H14.4744L9.46023 16H5.49716L0.475852 1.45455H3.89205ZM19.9094 16.2131C18.7873 16.2131 17.8214 15.9858 17.0117 15.5312C16.2068 15.072 15.5865 14.4233 15.1509 13.5852C14.7153 12.7424 14.4975 11.7457 14.4975 10.5952C14.4975 9.47301 14.7153 8.48816 15.1509 7.64062C15.5865 6.79309 16.1997 6.13258 16.9904 5.65909C17.7859 5.18561 18.7186 4.94886 19.7887 4.94886C20.5084 4.94886 21.1784 5.06487 21.7987 5.29688C22.4237 5.52415 22.9682 5.86742 23.4322 6.3267C23.9009 6.78598 24.2655 7.36364 24.5259 8.05966C24.7863 8.75095 24.9165 9.56061 24.9165 10.4886V11.3196H15.7049V9.4446H22.0685C22.0685 9.009 21.9738 8.62311 21.7844 8.28693C21.5951 7.95076 21.3323 7.68797 20.9961 7.49858C20.6647 7.30445 20.2788 7.20739 19.8384 7.20739C19.3791 7.20739 18.9719 7.31392 18.6168 7.52699C18.2665 7.73532 17.9918 8.01705 17.793 8.37216C17.5941 8.72254 17.4923 9.11316 17.4876 9.54403V11.3267C17.4876 11.8665 17.587 12.3329 17.7859 12.7259C17.9895 13.1188 18.2759 13.4219 18.6452 13.6349C19.0146 13.848 19.4525 13.9545 19.9592 13.9545C20.2953 13.9545 20.6031 13.9072 20.8825 13.8125C21.1618 13.7178 21.4009 13.5758 21.5998 13.3864C21.7987 13.197 21.9502 12.965 22.0543 12.6903L24.8526 12.875C24.7106 13.5473 24.4194 14.1345 23.979 14.6364C23.5434 15.1335 22.98 15.5218 22.2887 15.8011C21.6022 16.0758 20.8091 16.2131 19.9094 16.2131ZM26.891 16V5.09091H29.8242V6.99432H29.9379C30.1367 6.31723 30.4705 5.80587 30.9393 5.46023C31.408 5.10985 31.9478 4.93466 32.5586 4.93466C32.7101 4.93466 32.8735 4.94413 33.0487 4.96307C33.2238 4.98201 33.3777 5.00805 33.5103 5.04119V7.72585C33.3683 7.68324 33.1718 7.64536 32.9208 7.61222C32.6699 7.57907 32.4402 7.5625 32.2319 7.5625C31.7868 7.5625 31.3891 7.65956 31.0387 7.85369C30.6931 8.04309 30.4184 8.30824 30.2148 8.64915C30.016 8.99006 29.9165 9.38305 29.9165 9.82812V16H26.891ZM41.424 5.09091V7.36364H34.8544V5.09091H41.424ZM36.3459 2.47727H39.3714V12.6477C39.3714 12.9271 39.4141 13.1449 39.4993 13.3011C39.5845 13.4527 39.7029 13.5592 39.8544 13.6207C40.0107 13.6823 40.1906 13.7131 40.3942 13.7131C40.5362 13.7131 40.6783 13.7012 40.8203 13.6776C40.9624 13.6491 41.0713 13.6278 41.147 13.6136L41.6229 15.8651C41.4714 15.9124 41.2583 15.9669 40.9837 16.0284C40.709 16.0947 40.3752 16.1349 39.9822 16.1491C39.2531 16.1776 38.6139 16.0805 38.0646 15.858C37.5201 15.6354 37.0964 15.2898 36.7933 14.821C36.4903 14.3523 36.3411 13.7604 36.3459 13.0455V2.47727ZM48.2493 16.2131C47.1271 16.2131 46.1612 15.9858 45.3516 15.5312C44.5466 15.072 43.9264 14.4233 43.4908 13.5852C43.0552 12.7424 42.8374 11.7457 42.8374 10.5952C42.8374 9.47301 43.0552 8.48816 43.4908 7.64062C43.9264 6.79309 44.5395 6.13258 45.3303 5.65909C46.1257 5.18561 47.0585 4.94886 48.1286 4.94886C48.8482 4.94886 49.5182 5.06487 50.1385 5.29688C50.7635 5.52415 51.308 5.86742 51.772 6.3267C52.2408 6.78598 52.6054 7.36364 52.8658 8.05966C53.1262 8.75095 53.2564 9.56061 53.2564 10.4886V11.3196H44.0447V9.4446H50.4084C50.4084 9.009 50.3137 8.62311 50.1243 8.28693C49.9349 7.95076 49.6721 7.68797 49.3359 7.49858C49.0045 7.30445 48.6186 7.20739 48.1783 7.20739C47.719 7.20739 47.3118 7.31392 46.9567 7.52699C46.6063 7.73532 46.3317 8.01705 46.1328 8.37216C45.9339 8.72254 45.8321 9.11316 45.8274 9.54403V11.3267C45.8274 11.8665 45.9268 12.3329 46.1257 12.7259C46.3293 13.1188 46.6158 13.4219 46.9851 13.6349C47.3544 13.848 47.7924 13.9545 48.299 13.9545C48.6352 13.9545 48.9429 13.9072 49.2223 13.8125C49.5017 13.7178 49.7408 13.5758 49.9396 13.3864C50.1385 13.197 50.29 12.965 50.3942 12.6903L53.1925 12.875C53.0504 13.5473 52.7592 14.1345 52.3189 14.6364C51.8833 15.1335 51.3198 15.5218 50.6286 15.8011C49.942 16.0758 49.1489 16.2131 48.2493 16.2131ZM57.5639 5.09091L59.5668 8.90483L61.6193 5.09091H64.723L61.5625 10.5455L64.8082 16H61.7188L59.5668 12.2287L57.4503 16H54.3253L57.5639 10.5455L54.4389 5.09091H57.5639ZM71.2056 16V1.45455H80.8363V3.99006H74.2809V7.45597H80.1971V9.99148H74.2809V16H71.2056ZM82.848 16V5.09091H85.8736V16H82.848ZM84.3679 3.68466C83.9181 3.68466 83.5322 3.53551 83.2102 3.23722C82.893 2.93419 82.7344 2.57197 82.7344 2.15057C82.7344 1.7339 82.893 1.37642 83.2102 1.07812C83.5322 0.775094 83.9181 0.623579 84.3679 0.623579C84.8177 0.623579 85.2012 0.775094 85.5185 1.07812C85.8404 1.37642 86.0014 1.7339 86.0014 2.15057C86.0014 2.57197 85.8404 2.93419 85.5185 3.23722C85.2012 3.53551 84.8177 3.68466 84.3679 3.68466ZM91.3228 9.69318V16H88.2972V5.09091H91.1808V7.01562H91.3086C91.5501 6.38116 91.9549 5.87926 92.5231 5.50994C93.0913 5.13589 93.7802 4.94886 94.5898 4.94886C95.3474 4.94886 96.0079 5.11458 96.5714 5.44602C97.1348 5.77746 97.5728 6.25095 97.8853 6.86648C98.1978 7.47727 98.354 8.20644 98.354 9.05398V16H95.3285V9.59375C95.3332 8.92614 95.1628 8.4053 94.8171 8.03125C94.4715 7.65246 93.9956 7.46307 93.3896 7.46307C92.9824 7.46307 92.6225 7.55066 92.31 7.72585C92.0022 7.90104 91.7608 8.15672 91.5856 8.4929C91.4151 8.82434 91.3275 9.22443 91.3228 9.69318ZM113.629 6.54688H110.518C110.462 6.14441 110.346 5.78693 110.17 5.47443C109.995 5.1572 109.77 4.88731 109.496 4.66477C109.221 4.44223 108.904 4.27178 108.544 4.15341C108.189 4.03504 107.803 3.97585 107.386 3.97585C106.634 3.97585 105.978 4.16288 105.419 4.53693C104.86 4.90625 104.427 5.44602 104.119 6.15625C103.812 6.86174 103.658 7.71875 103.658 8.72727C103.658 9.7642 103.812 10.6354 104.119 11.3409C104.432 12.0464 104.867 12.5791 105.426 12.9389C105.985 13.2988 106.631 13.4787 107.365 13.4787C107.777 13.4787 108.158 13.4242 108.509 13.3153C108.864 13.2064 109.179 13.0478 109.453 12.8395C109.728 12.6264 109.955 12.3684 110.135 12.0653C110.32 11.7623 110.447 11.4167 110.518 11.0284L113.629 11.0426C113.549 11.7102 113.348 12.3542 113.026 12.9744C112.708 13.59 112.28 14.1416 111.74 14.6293C111.205 15.1122 110.566 15.4957 109.822 15.7798C109.084 16.0592 108.248 16.1989 107.315 16.1989C106.018 16.1989 104.858 15.9053 103.835 15.3182C102.817 14.7311 102.012 13.8812 101.42 12.7685C100.833 11.6558 100.54 10.3087 100.54 8.72727C100.54 7.1411 100.838 5.79167 101.435 4.67898C102.031 3.56629 102.841 2.71875 103.864 2.13636C104.886 1.54924 106.037 1.25568 107.315 1.25568C108.158 1.25568 108.939 1.37405 109.659 1.6108C110.384 1.84754 111.025 2.19318 111.584 2.64773C112.143 3.09754 112.597 3.64915 112.947 4.30256C113.303 4.95597 113.53 5.70407 113.629 6.54688ZM118.888 16.206C118.192 16.206 117.572 16.0852 117.028 15.8438C116.483 15.5975 116.052 15.2353 115.735 14.7571C115.423 14.2741 115.266 13.6728 115.266 12.9531C115.266 12.3471 115.378 11.8381 115.6 11.4261C115.823 11.0142 116.126 10.6828 116.509 10.4318C116.893 10.1809 117.328 9.99148 117.816 9.86364C118.308 9.7358 118.825 9.64583 119.364 9.59375C119.999 9.52746 120.51 9.46591 120.898 9.40909C121.287 9.34754 121.568 9.25758 121.744 9.1392C121.919 9.02083 122.006 8.84564 122.006 8.61364V8.57102C122.006 8.12121 121.864 7.7732 121.58 7.52699C121.301 7.28078 120.903 7.15767 120.387 7.15767C119.843 7.15767 119.409 7.27841 119.087 7.51989C118.765 7.75663 118.552 8.05492 118.448 8.41477L115.65 8.1875C115.792 7.52462 116.071 6.9517 116.488 6.46875C116.905 5.98106 117.442 5.60701 118.1 5.34659C118.763 5.08144 119.53 4.94886 120.401 4.94886C121.007 4.94886 121.587 5.01989 122.141 5.16193C122.7 5.30398 123.195 5.52415 123.626 5.82244C124.061 6.12074 124.405 6.50426 124.656 6.97301C124.906 7.43703 125.032 7.99337 125.032 8.64205V16H122.163V14.4872H122.077C121.902 14.8281 121.668 15.1288 121.374 15.3892C121.081 15.6449 120.728 15.8461 120.316 15.9929C119.904 16.1349 119.428 16.206 118.888 16.206ZM119.755 14.1179C120.2 14.1179 120.593 14.0303 120.934 13.8551C121.275 13.6752 121.542 13.4337 121.737 13.1307C121.931 12.8277 122.028 12.4844 122.028 12.1009V10.9432C121.933 11.0047 121.803 11.0616 121.637 11.1136C121.476 11.161 121.294 11.206 121.09 11.2486C120.887 11.2865 120.683 11.322 120.479 11.3551C120.276 11.3835 120.091 11.4096 119.925 11.4332C119.57 11.4853 119.26 11.5682 118.995 11.6818C118.73 11.7955 118.524 11.9493 118.377 12.1435C118.23 12.3329 118.157 12.5696 118.157 12.8537C118.157 13.2656 118.306 13.5805 118.604 13.7983C118.907 14.0114 119.291 14.1179 119.755 14.1179ZM127.379 20.0909V5.09091H130.362V6.9233H130.497C130.63 6.62973 130.821 6.33144 131.072 6.02841C131.328 5.72064 131.66 5.46496 132.067 5.26136C132.479 5.05303 132.99 4.94886 133.601 4.94886C134.396 4.94886 135.13 5.1572 135.803 5.57386C136.475 5.9858 137.012 6.60843 137.415 7.44176C137.817 8.27036 138.018 9.30966 138.018 10.5597C138.018 11.7765 137.822 12.804 137.429 13.642C137.041 14.4754 136.51 15.1075 135.838 15.5384C135.17 15.9645 134.422 16.1776 133.594 16.1776C133.007 16.1776 132.507 16.0805 132.095 15.8864C131.688 15.6922 131.354 15.4484 131.094 15.1548C130.833 14.8565 130.634 14.5559 130.497 14.2528H130.405V20.0909H127.379ZM130.341 10.5455C130.341 11.1941 130.431 11.7599 130.611 12.2429C130.791 12.7259 131.051 13.1023 131.392 13.3722C131.733 13.6373 132.147 13.7699 132.635 13.7699C133.127 13.7699 133.544 13.6349 133.885 13.3651C134.226 13.0904 134.484 12.7116 134.659 12.2287C134.839 11.741 134.929 11.1799 134.929 10.5455C134.929 9.91572 134.841 9.36174 134.666 8.88352C134.491 8.4053 134.233 8.03125 133.892 7.76136C133.551 7.49148 133.132 7.35653 132.635 7.35653C132.143 7.35653 131.726 7.48674 131.385 7.74716C131.049 8.00758 130.791 8.37689 130.611 8.85511C130.431 9.33333 130.341 9.89678 130.341 10.5455ZM140.036 16V5.09091H143.061V16H140.036ZM141.555 3.68466C141.106 3.68466 140.72 3.53551 140.398 3.23722C140.08 2.93419 139.922 2.57197 139.922 2.15057C139.922 1.7339 140.08 1.37642 140.398 1.07812C140.72 0.775094 141.106 0.623579 141.555 0.623579C142.005 0.623579 142.389 0.775094 142.706 1.07812C143.028 1.37642 143.189 1.7339 143.189 2.15057C143.189 2.57197 143.028 2.93419 142.706 3.23722C142.389 3.53551 142.005 3.68466 141.555 3.68466ZM151.287 5.09091V7.36364H144.718V5.09091H151.287ZM146.209 2.47727H149.235V12.6477C149.235 12.9271 149.277 13.1449 149.363 13.3011C149.448 13.4527 149.566 13.5592 149.718 13.6207C149.874 13.6823 150.054 13.7131 150.257 13.7131C150.4 13.7131 150.542 13.7012 150.684 13.6776C150.826 13.6491 150.935 13.6278 151.01 13.6136L151.486 15.8651C151.335 15.9124 151.122 15.9669 150.847 16.0284C150.572 16.0947 150.239 16.1349 149.846 16.1491C149.116 16.1776 148.477 16.0805 147.928 15.858C147.383 15.6354 146.96 15.2898 146.657 14.821C146.354 14.3523 146.204 13.7604 146.209 13.0455V2.47727ZM156.369 16.206C155.673 16.206 155.053 16.0852 154.508 15.8438C153.964 15.5975 153.533 15.2353 153.216 14.7571C152.903 14.2741 152.747 13.6728 152.747 12.9531C152.747 12.3471 152.858 11.8381 153.081 11.4261C153.303 11.0142 153.606 10.6828 153.99 10.4318C154.373 10.1809 154.809 9.99148 155.297 9.86364C155.789 9.7358 156.305 9.64583 156.845 9.59375C157.479 9.52746 157.991 9.46591 158.379 9.40909C158.767 9.34754 159.049 9.25758 159.224 9.1392C159.399 9.02083 159.487 8.84564 159.487 8.61364V8.57102C159.487 8.12121 159.345 7.7732 159.061 7.52699C158.781 7.28078 158.384 7.15767 157.868 7.15767C157.323 7.15767 156.89 7.27841 156.568 7.51989C156.246 7.75663 156.033 8.05492 155.929 8.41477L153.13 8.1875C153.272 7.52462 153.552 6.9517 153.968 6.46875C154.385 5.98106 154.922 5.60701 155.581 5.34659C156.243 5.08144 157.011 4.94886 157.882 4.94886C158.488 4.94886 159.068 5.01989 159.622 5.16193C160.181 5.30398 160.675 5.52415 161.106 5.82244C161.542 6.12074 161.885 6.50426 162.136 6.97301C162.387 7.43703 162.512 7.99337 162.512 8.64205V16H159.643V14.4872H159.558C159.383 14.8281 159.148 15.1288 158.855 15.3892C158.561 15.6449 158.208 15.8461 157.797 15.9929C157.385 16.1349 156.909 16.206 156.369 16.206ZM157.235 14.1179C157.681 14.1179 158.074 14.0303 158.414 13.8551C158.755 13.6752 159.023 13.4337 159.217 13.1307C159.411 12.8277 159.508 12.4844 159.508 12.1009V10.9432C159.413 11.0047 159.283 11.0616 159.118 11.1136C158.957 11.161 158.774 11.206 158.571 11.2486C158.367 11.2865 158.163 11.322 157.96 11.3551C157.756 11.3835 157.572 11.4096 157.406 11.4332C157.051 11.4853 156.741 11.5682 156.475 11.6818C156.21 11.7955 156.004 11.9493 155.858 12.1435C155.711 12.3329 155.637 12.5696 155.637 12.8537C155.637 13.2656 155.787 13.5805 156.085 13.7983C156.388 14.0114 156.771 14.1179 157.235 14.1179ZM167.885 1.45455V16H164.86V1.45455H167.885Z" fill="white"/>
</svg>
