<svg width="122" height="33" viewBox="0 0 122 33" fill="none" xmlns="http://www.w3.org/2000/svg">
<path d="M43.8216 20.0324L35.1216 0.5H38.9749L45.9846 16.9005H44.8189L51.8286 0.5H55.5417L46.8417 20.0324H43.8216ZM62.2229 20.3088C59.8757 20.3088 58.0372 19.664 56.7073 18.3703C55.3775 17.0767 54.7126 15.3025 54.7126 13.0517C54.7126 11.5939 54.997 10.3203 55.5698 9.2269C56.1426 8.13754 56.9356 7.28849 57.953 6.67972C58.9865 6.07096 60.1881 5.76657 61.554 5.76657C62.9199 5.76657 64.0294 6.05093 64.9347 6.62365C65.8399 7.19636 66.5249 8.00138 66.9855 9.03467C67.4662 10.068 67.7065 11.2775 67.7065 12.6632V13.5763H57.5084V11.746H65.2391L64.7664 12.1345C64.7664 10.8409 64.4901 9.85168 63.9333 9.17083C63.3966 8.48597 62.6115 8.14555 61.578 8.14555C60.4325 8.14555 59.5472 8.55007 58.9184 9.36308C58.3095 10.1761 58.0051 11.3135 58.0051 12.7713V13.1318C58.0051 14.6457 58.3736 15.7831 59.1146 16.5401C59.8717 17.277 60.9332 17.6494 62.299 17.6494C63.0921 17.6494 63.8332 17.5493 64.5141 17.3451C65.2151 17.1248 65.88 16.7723 66.5088 16.2917L67.5343 18.6187C66.8693 19.1553 66.0762 19.5718 65.151 19.8642C64.2257 20.1606 63.2483 20.3088 62.2149 20.3088H62.2229ZM70.6145 20.0324V9.61538C70.6145 9.02264 70.5945 8.42589 70.5584 7.81312C70.5384 7.20436 70.4943 6.61162 70.4182 6.03891H73.7709L74.1594 9.86371H73.6066C73.7909 8.93855 74.0953 8.17358 74.5199 7.56482C74.9645 6.95605 75.4972 6.50351 76.1261 6.20714C76.755 5.91077 77.4359 5.76256 78.1769 5.76256C78.5094 5.76256 78.7777 5.78259 78.982 5.81864C79.1863 5.83866 79.3866 5.88273 79.5909 5.95883L79.5628 9.00663C79.2103 8.85845 78.9059 8.76633 78.6496 8.73029C78.4092 8.69424 78.1048 8.67421 77.7363 8.67421C76.9432 8.67421 76.2663 8.84242 75.7135 9.17484C75.1768 9.50725 74.7722 9.96784 74.4958 10.5606C74.2355 11.1533 74.1073 11.8262 74.1073 12.5831V20.0364H70.6145V20.0324ZM88.2868 20.3088C86.6246 20.3088 85.3668 19.8762 84.5177 19.0071C83.6685 18.138 83.2439 16.8364 83.2439 15.1022V8.64617H80.5562V6.04292H83.2439V2.47046L86.7087 1.58534V6.04693H90.4498V8.65018H86.7087V14.882C86.7087 15.8432 86.8929 16.516 87.2614 16.9045C87.6299 17.293 88.1386 17.4852 88.7835 17.4852C89.136 17.4852 89.4284 17.4572 89.6688 17.4011C89.9291 17.345 90.1775 17.273 90.4178 17.1808V19.9243C90.1054 20.0524 89.7529 20.1446 89.3643 20.2006C88.9958 20.2727 88.6353 20.3128 88.2828 20.3128L88.2868 20.3088ZM99.4262 20.3088C97.079 20.3088 95.2404 19.664 93.9106 18.3703C92.5808 17.0767 91.9159 15.3025 91.9159 13.0517C91.9159 11.5939 92.2002 10.3203 92.773 9.2269C93.3458 8.13754 94.1389 7.28849 95.1563 6.67972C96.1897 6.07096 97.3914 5.76657 98.7573 5.76657C100.123 5.76657 101.233 6.05093 102.138 6.62365C103.043 7.19636 103.728 8.00138 104.189 9.03467C104.669 10.068 104.91 11.2775 104.91 12.6632V13.5763H94.7117V11.746H102.442L101.97 12.1345C101.97 10.8409 101.693 9.85168 101.137 9.17083C100.6 8.48597 99.8147 8.14555 98.7813 8.14555C97.6357 8.14555 96.7505 8.55007 96.1217 9.36308C95.5128 10.1761 95.2084 11.3135 95.2084 12.7713V13.1318C95.2084 14.6457 95.5769 15.7831 96.3179 16.5401C97.075 17.277 98.1364 17.6494 99.5023 17.6494C100.295 17.6494 101.036 17.5493 101.717 17.3451C102.418 17.1248 103.083 16.7723 103.712 16.2917L104.738 18.6187C104.073 19.1553 103.28 19.5718 102.354 19.8642C101.429 20.1606 100.452 20.3088 99.4182 20.3088H99.4262ZM105.603 20.0324L112.116 12.0264V13.6044L105.963 6.04292H110.065L114.082 11.2254H112.837L116.854 6.04292H120.928L114.831 13.6044V12.0264L121.316 20.0324H117.187L112.837 14.4655H114.082L109.704 20.0324H105.603Z" fill="white"/>
<path d="M81.6096 30.7454V24.5257H85.4669V25.3346H82.5469V27.229H85.1906V28.034H82.5469V30.7454H81.6096ZM86.5484 30.7454V26.0796H87.4577V30.7454H86.5484ZM87.0051 25.3627C86.8488 25.3627 86.7127 25.3106 86.5965 25.2065C86.4843 25.0984 86.4283 24.9702 86.4283 24.822C86.4283 24.6738 86.4843 24.5457 86.5965 24.4375C86.7086 24.3294 86.8448 24.2773 87.0051 24.2773C87.1653 24.2773 87.2975 24.3294 87.4096 24.4375C87.5218 24.5417 87.5778 24.6698 87.5778 24.822C87.5778 24.9742 87.5218 25.0984 87.4096 25.2065C87.2975 25.3106 87.1653 25.3627 87.0051 25.3627ZM89.5846 27.974V30.7454H88.6754V26.0796H89.5486V26.8405H89.6046C89.7128 26.5922 89.881 26.396 90.1093 26.2438C90.3417 26.0956 90.6301 26.0195 90.9825 26.0195C91.299 26.0195 91.5794 26.0876 91.8197 26.2198C92.06 26.3519 92.2443 26.5482 92.3765 26.8085C92.5086 27.0688 92.5727 27.3932 92.5727 27.7777V30.7454H91.6635V27.8898C91.6635 27.5534 91.5754 27.2891 91.3991 27.0969C91.2229 26.9046 90.9825 26.8085 90.6741 26.8085C90.4618 26.8085 90.2776 26.8526 90.1133 26.9447C89.9531 27.0368 89.8209 27.1689 89.7288 27.3452C89.6367 27.5174 89.5886 27.7297 89.5886 27.978L89.5846 27.974ZM99.0296 26.5482H98.0803C98.0443 26.3439 97.9762 26.1677 97.876 26.0155C97.7759 25.8633 97.6557 25.7312 97.5115 25.623C97.3673 25.5149 97.2071 25.4348 97.0269 25.3787C96.8506 25.3227 96.6624 25.2986 96.4661 25.2986C96.1096 25.2986 95.7852 25.3867 95.5048 25.5669C95.2244 25.7472 95.0001 26.0115 94.8358 26.36C94.6756 26.7084 94.5915 27.1329 94.5915 27.6335C94.5915 28.1342 94.6716 28.5667 94.8358 28.9151C95.0001 29.2636 95.2244 29.5279 95.5088 29.7041C95.7932 29.8803 96.1096 29.9725 96.4661 29.9725C96.6624 29.9725 96.8506 29.9444 97.0269 29.8923C97.2031 29.8363 97.3673 29.7562 97.5115 29.6521C97.6557 29.5479 97.7759 29.4198 97.876 29.2676C97.9762 29.1154 98.0483 28.9392 98.0843 28.7389H99.0336C98.9816 29.0473 98.8854 29.3277 98.7372 29.588C98.593 29.8443 98.4088 30.0646 98.1805 30.2488C97.9562 30.433 97.6998 30.5772 97.4074 30.6773C97.119 30.7775 96.8026 30.8295 96.4581 30.8295C95.9213 30.8295 95.4407 30.7014 95.0201 30.445C94.5995 30.1887 94.2671 29.8203 94.0227 29.3437C93.7824 28.8671 93.6622 28.2944 93.6622 27.6335C93.6622 26.9727 93.7824 26.4 94.0267 25.9234C94.2711 25.4468 94.6035 25.0783 95.0241 24.826C95.4447 24.5697 95.9253 24.4415 96.4621 24.4415C96.7905 24.4415 97.099 24.4896 97.3834 24.5857C97.6718 24.6778 97.9281 24.818 98.1564 24.9982C98.3847 25.1785 98.573 25.3988 98.7252 25.6591C98.8734 25.9194 98.9776 26.2158 99.0296 26.5482ZM101.437 30.8496C101.141 30.8496 100.872 30.7935 100.636 30.6854C100.396 30.5732 100.207 30.413 100.067 30.2007C99.9309 29.9885 99.8588 29.7322 99.8588 29.4278C99.8588 29.1634 99.9108 28.9472 100.011 28.779C100.111 28.6108 100.247 28.4746 100.42 28.3745C100.592 28.2743 100.784 28.2022 100.996 28.1502C101.209 28.0981 101.425 28.0621 101.645 28.034C101.926 28.002 102.15 27.974 102.326 27.9539C102.498 27.9299 102.627 27.8979 102.707 27.8458C102.787 27.7977 102.827 27.7176 102.827 27.6095V27.5895C102.827 27.3251 102.751 27.1169 102.603 26.9727C102.454 26.8285 102.234 26.7524 101.942 26.7524C101.649 26.7524 101.397 26.8205 101.221 26.9567C101.048 27.0889 100.924 27.241 100.86 27.4012L100.007 27.205C100.107 26.9206 100.255 26.6924 100.452 26.5201C100.648 26.3439 100.872 26.2157 101.129 26.1356C101.385 26.0555 101.653 26.0155 101.934 26.0155C102.122 26.0155 102.318 26.0396 102.526 26.0836C102.739 26.1277 102.935 26.2037 103.115 26.3199C103.3 26.436 103.452 26.6002 103.568 26.8165C103.684 27.0288 103.744 27.3051 103.744 27.6455V30.7414H102.859V30.1046H102.823C102.763 30.2208 102.675 30.3369 102.558 30.4491C102.442 30.5612 102.29 30.6573 102.106 30.7334C101.922 30.8095 101.701 30.8455 101.445 30.8455L101.437 30.8496ZM101.633 30.1206C101.886 30.1206 102.098 30.0726 102.278 29.9725C102.458 29.8723 102.595 29.7442 102.687 29.584C102.783 29.4238 102.831 29.2476 102.831 29.0633V28.4626C102.799 28.4946 102.735 28.5267 102.643 28.5547C102.55 28.5827 102.446 28.6027 102.33 28.6228C102.214 28.6428 102.098 28.6588 101.986 28.6748C101.874 28.6909 101.781 28.7029 101.705 28.7109C101.529 28.7349 101.369 28.771 101.221 28.823C101.076 28.8751 100.96 28.9512 100.876 29.0513C100.792 29.1474 100.748 29.2796 100.748 29.4398C100.748 29.6641 100.832 29.8363 100.996 29.9484C101.161 30.0606 101.373 30.1166 101.629 30.1166L101.633 30.1206ZM104.946 32.4956V26.0836H105.831V26.8405H105.907C105.959 26.7444 106.035 26.6323 106.135 26.5041C106.236 26.376 106.372 26.2638 106.548 26.1717C106.724 26.0756 106.957 26.0275 107.245 26.0275C107.621 26.0275 107.958 26.1236 108.254 26.3119C108.551 26.5041 108.783 26.7765 108.951 27.1329C109.12 27.4894 109.208 27.9219 109.208 28.4265C109.208 28.9312 109.124 29.3637 108.955 29.7241C108.787 30.0806 108.555 30.3569 108.262 30.5532C107.97 30.7454 107.633 30.8415 107.257 30.8415C106.973 30.8415 106.74 30.7935 106.56 30.6974C106.384 30.6012 106.244 30.4891 106.139 30.365C106.039 30.2368 105.959 30.1246 105.907 30.0245H105.851V32.4996H104.942L104.946 32.4956ZM105.835 28.4145C105.835 28.7429 105.883 29.0313 105.979 29.2756C106.075 29.5239 106.212 29.7161 106.392 29.8563C106.572 29.9925 106.792 30.0646 107.053 30.0646C107.313 30.0646 107.549 29.9925 107.734 29.8483C107.914 29.7041 108.054 29.5039 108.146 29.2556C108.242 29.0073 108.29 28.7269 108.29 28.4145C108.29 28.1021 108.242 27.8298 108.15 27.5855C108.058 27.3412 107.922 27.1489 107.738 27.0048C107.557 26.8646 107.329 26.7925 107.053 26.7925C106.776 26.7925 106.568 26.8606 106.384 26.9967C106.204 27.1329 106.067 27.3211 105.975 27.5654C105.883 27.8097 105.835 28.0901 105.835 28.4145ZM110.225 30.7454V26.0796H111.134V30.7454H110.225ZM110.686 25.3627C110.529 25.3627 110.393 25.3106 110.277 25.2065C110.165 25.0984 110.109 24.9702 110.109 24.822C110.109 24.6738 110.165 24.5457 110.277 24.4375C110.389 24.3294 110.525 24.2773 110.686 24.2773C110.846 24.2773 110.978 24.3294 111.09 24.4375C111.202 24.5417 111.258 24.6698 111.258 24.822C111.258 24.9742 111.202 25.0984 111.09 25.2065C110.978 25.3106 110.846 25.3627 110.686 25.3627ZM114.531 26.0796V26.8085H111.983V26.0796H114.531ZM112.668 24.9622H113.578V29.3757C113.578 29.5519 113.606 29.6841 113.658 29.7722C113.71 29.8603 113.778 29.9204 113.862 29.9524C113.946 29.9845 114.038 29.9965 114.138 29.9965C114.211 29.9965 114.275 29.9925 114.331 29.9805C114.387 29.9685 114.427 29.9604 114.459 29.9564L114.623 30.7054C114.571 30.7254 114.495 30.7454 114.399 30.7655C114.303 30.7895 114.179 30.8015 114.034 30.8015C113.794 30.8055 113.574 30.7614 113.365 30.6733C113.157 30.5852 112.993 30.4451 112.865 30.2608C112.737 30.0726 112.672 29.8403 112.672 29.56V24.9582L112.668 24.9622ZM116.894 30.8496C116.598 30.8496 116.329 30.7935 116.093 30.6854C115.853 30.5732 115.665 30.413 115.524 30.2007C115.388 29.9885 115.316 29.7322 115.316 29.4278C115.316 29.1634 115.368 28.9472 115.468 28.779C115.568 28.6108 115.705 28.4746 115.877 28.3745C116.049 28.2743 116.241 28.2022 116.454 28.1502C116.666 28.0981 116.882 28.0621 117.103 28.034C117.383 28.002 117.607 27.974 117.783 27.9539C117.956 27.9299 118.084 27.8979 118.164 27.8458C118.244 27.7977 118.284 27.7176 118.284 27.6095V27.5895C118.284 27.3251 118.208 27.1169 118.06 26.9727C117.912 26.8285 117.691 26.7524 117.399 26.7524C117.107 26.7524 116.854 26.8205 116.678 26.9567C116.506 27.0889 116.382 27.241 116.317 27.4012L115.464 27.205C115.564 26.9206 115.713 26.6924 115.909 26.5201C116.105 26.3439 116.329 26.2157 116.586 26.1356C116.842 26.0555 117.111 26.0155 117.391 26.0155C117.579 26.0155 117.775 26.0396 117.984 26.0836C118.196 26.1277 118.392 26.2037 118.573 26.3199C118.757 26.436 118.909 26.6002 119.025 26.8165C119.141 27.0288 119.201 27.3051 119.201 27.6455V30.7414H118.316V30.1046H118.28C118.22 30.2208 118.132 30.3369 118.016 30.4491C117.9 30.5612 117.747 30.6573 117.563 30.7334C117.379 30.8095 117.159 30.8455 116.902 30.8455L116.894 30.8496ZM117.091 30.1206C117.343 30.1206 117.555 30.0726 117.735 29.9725C117.916 29.8723 118.052 29.7442 118.144 29.584C118.24 29.4238 118.288 29.2476 118.288 29.0633V28.4626C118.256 28.4946 118.192 28.5267 118.1 28.5547C118.008 28.5827 117.904 28.6027 117.787 28.6228C117.671 28.6428 117.555 28.6588 117.443 28.6748C117.331 28.6909 117.239 28.7029 117.163 28.7109C116.986 28.7349 116.826 28.771 116.678 28.823C116.534 28.8751 116.418 28.9512 116.333 29.0513C116.249 29.1474 116.205 29.2796 116.205 29.4398C116.205 29.6641 116.289 29.8363 116.454 29.9484C116.618 30.0606 116.83 30.1166 117.087 30.1166L117.091 30.1206ZM121.316 24.5257V30.7454H120.407V24.5257H121.316Z" fill="white"/>
<path d="M24.9794 4.70439V18.4266H14.7253L10.87 14.5717H1.3819L1.53211 16.2038L6.36377 16.1487L10.2491 19.9735H19.4268V25.986H10.87L6.97962 22.1512L0 22.2814V8.55921H10.2541C11.626 9.81579 12.7526 11.3227 14.2647 12.414H23.5925L23.4423 10.787L18.6507 10.807L14.7253 7.02229H5.54765V1.00977H14.1044L17.8045 4.72941C17.9347 4.89462 18.0649 4.7094 18.115 4.7094H24.9794V4.70439Z" fill="white"/>
</svg>
