<svg width="16" height="17" viewBox="0 0 16 17" fill="none" xmlns="http://www.w3.org/2000/svg">
<path d="M12.82 10.6735L11.1267 10.4802C10.9276 10.4568 10.7257 10.4788 10.5364 10.5446C10.347 10.6105 10.175 10.7183 10.0333 10.8602L8.80666 12.0868C6.91426 11.1241 5.37604 9.58591 4.41333 7.6935L5.64666 6.46017C5.93333 6.1735 6.07333 5.7735 6.02666 5.36684L5.83333 3.68684C5.79567 3.36156 5.63964 3.06152 5.39497 2.8439C5.1503 2.62628 4.83411 2.5063 4.50666 2.50684H3.35333C2.6 2.50684 1.97333 3.1335 2.02 3.88684C2.37333 9.58017 6.92666 14.1268 12.6133 14.4802C13.3667 14.5268 13.9933 13.9002 13.9933 13.1468V11.9935C14 11.3202 13.4933 10.7535 12.82 10.6735Z" fill="white"/>
</svg>
